<svg width="17" height="8" viewBox="0 0 17 8" fill="none" xmlns="http://www.w3.org/2000/svg">
<path fill-rule="evenodd" clip-rule="evenodd" d="M12.9932 1H2.99316C2.72795 1 2.47359 1.10536 2.28606 1.29289C2.09852 1.48043 1.99316 1.73478 1.99316 2V6C1.99316 6.26522 2.09852 6.51957 2.28606 6.70711C2.47359 6.89464 2.72795 7 2.99316 7H12.9932C13.2584 7 13.5127 6.89464 13.7003 6.70711C13.8878 6.51957 13.9932 6.26522 13.9932 6V2C13.9932 1.73478 13.8878 1.48043 13.7003 1.29289C13.5127 1.10536 13.2584 1 12.9932 1ZM2.99316 0C2.46273 0 1.95402 0.210714 1.57895 0.585786C1.20388 0.960859 0.993164 1.46957 0.993164 2L0.993164 6C0.993164 6.53043 1.20388 7.03914 1.57895 7.41421C1.95402 7.78929 2.46273 8 2.99316 8H12.9932C13.5236 8 14.0323 7.78929 14.4074 7.41421C14.7824 7.03914 14.9932 6.53043 14.9932 6V2C14.9932 1.46957 14.7824 0.960859 14.4074 0.585786C14.0323 0.210714 13.5236 0 12.9932 0H2.99316Z" fill="#595960"/>
<path d="M2.99316 2H12.9932V6H2.99316V2ZM15.4932 5.5C15.891 5.5 16.2725 5.34196 16.5538 5.06066C16.8351 4.77936 16.9932 4.39782 16.9932 4C16.9932 3.60218 16.8351 3.22064 16.5538 2.93934C16.2725 2.65804 15.891 2.5 15.4932 2.5V5.5Z" fill="#595960"/>
</svg>
