<svg width="10" height="16" viewBox="0 0 10 16" fill="none" xmlns="http://www.w3.org/2000/svg">
<path d="M4.91566 0.834505C4.89406 0.662505 4.61166 0.662505 4.59086 0.834505C3.88446 6.52011 0.272461 7.69211 0.272461 11.6441C0.272461 14.0865 2.32366 16.0657 4.75326 16.0657C7.18206 16.0657 9.23326 14.0857 9.23326 11.6441C9.23326 7.69211 5.62206 6.52011 4.91566 0.834505ZM4.23326 7.12011C4.18606 7.29531 4.13486 7.47531 4.08206 7.66251C3.76126 8.80171 3.39726 10.0937 3.39726 11.5873C3.39726 12.3969 2.91886 12.6841 2.47246 12.6841C2.35049 12.6836 2.22981 12.659 2.11733 12.6119C2.00484 12.5647 1.90275 12.4959 1.81687 12.4092C1.73099 12.3226 1.66302 12.2199 1.61683 12.107C1.57064 11.9942 1.54713 11.8733 1.54766 11.7513C1.54766 9.98571 2.39726 8.83211 3.14766 7.81531C3.38366 7.49691 3.60526 7.19531 3.78526 6.89531C3.86766 6.75771 4.08926 6.76411 4.19006 6.90011C4.23726 6.96411 4.25326 7.04571 4.23326 7.12011Z" fill="#595960"/>
</svg>
