<svg width="62" height="82" viewBox="0 0 62 82" fill="none" xmlns="http://www.w3.org/2000/svg">
<path d="M36.1667 21.7812V0H3.875C1.7276 0 0 1.71367 0 3.84375V78.1562C0 80.2863 1.7276 82 3.875 82H58.125C60.2724 82 62 80.2863 62 78.1562V25.625H40.0417C37.9104 25.625 36.1667 23.8953 36.1667 21.7812ZM46.6905 56.3766H36.1667V69.1891C36.1667 70.6049 35.0106 71.7516 33.5833 71.7516H28.4167C26.9894 71.7516 25.8333 70.6049 25.8333 69.1891V56.3766H15.3095C13.0039 56.3766 11.8527 53.6075 13.4898 51.9947L29.0577 36.6678C30.1314 35.6091 31.8654 35.6091 32.9391 36.6678L48.5069 51.9947C50.1457 53.6075 48.9961 56.3766 46.6905 56.3766ZM60.8698 16.8164L45.063 1.12109C44.3365 0.400391 43.3516 0 42.3182 0H41.3333V20.5H62V19.523C62 18.5141 61.5964 17.5371 60.8698 16.8164Z" fill="#FFFFFF"/>
</svg>
