<svg width="30" height="35" viewBox="0 0 30 35" fill="none" xmlns="http://www.w3.org/2000/svg">
<path d="M12.9555 24.4376C13.1433 27.6914 12.4658 28.9795 10.2024 29.342C7.93684 29.7045 5.74466 27.7539 5.30018 24.9814C5.09736 23.7083 4.89454 21.1213 4.63562 19.9885L2.69157 14.5167C2.57938 14.0334 1.29773 11.729 1.09491 10.7257C0.682796 8.68457 1.99897 6.69952 4.03579 6.28525C4.03579 6.28525 7.06515 5.67464 7.59809 5.56675C8.13103 5.45671 9.72122 5.35315 9.72122 5.35315C11.9048 5.35315 12.9577 6.4816 12.9577 8.66515C12.9577 9.93169 10.7137 11.8801 10.7137 11.8801C10.7137 11.8801 7.53767 14.9375 8.64887 17.2095C9.75574 19.4815 12.2845 20.1374 12.9555 24.4376ZM10.4203 4.79431C11.3222 4.79431 12.0558 3.71764 12.0558 2.395C12.0558 1.07236 11.3222 0 10.4203 0C9.51193 0 8.77832 1.07451 8.77832 2.395C8.78048 3.71764 9.51193 4.79431 10.4203 4.79431ZM6.93569 4.5505C7.5161 4.46851 7.88937 3.71333 7.76638 2.86321C7.64555 2.01309 7.07593 1.39169 6.49552 1.47584C5.91727 1.55783 5.544 2.31301 5.66483 3.16312C5.78565 4.01108 6.35528 4.63249 6.93569 4.5505ZM4.45222 5.22369C4.87297 5.12444 5.0952 4.54618 4.95064 3.93341C4.80392 3.32063 4.3465 2.90205 3.92791 3.0013C3.50933 3.10055 3.28493 3.67665 3.43165 4.29158C3.57621 4.90435 4.03148 5.32294 4.45222 5.22369ZM2.44344 6.53986C2.81025 6.39529 2.93539 5.84078 2.72178 5.30352C2.50817 4.76626 2.03996 4.44693 1.67316 4.59365C1.30636 4.74037 1.18121 5.29273 1.39482 5.82999C1.60843 6.36725 2.07664 6.68442 2.44344 6.53986ZM0.25558 6.69521C0.0117645 6.79015 -0.0723842 7.15695 0.0678635 7.51512C0.208111 7.87113 0.520972 8.08258 0.764787 7.98765C1.0086 7.89271 1.09275 7.52375 0.952503 7.16774C0.810097 6.80957 0.499395 6.59811 0.25558 6.69521ZM26.0137 11.8844C26.0137 11.8844 23.0512 11.0148 22.5291 10.8638C22.0069 10.7085 20.4318 10.469 20.4318 10.469C18.2548 10.2834 17.1112 11.3191 16.9256 13.494C16.8134 14.7519 18.8826 16.8858 18.8826 16.8858C18.8826 16.8858 21.7868 20.2043 20.4836 22.3706C19.1847 24.5369 16.6106 24.9792 15.5771 29.2017C15.111 32.4231 15.6785 33.7673 17.8966 34.3262C20.1254 34.8828 22.473 33.1222 23.157 30.4035C23.4698 29.1478 23.8906 26.5888 24.2487 25.4819L26.6524 20.1978C26.8055 19.7231 28.2792 17.5396 28.5684 16.5579C29.1509 14.562 28.0074 12.4691 26.0137 11.8844ZM19.7802 9.84755C20.6821 9.92522 21.5042 8.91975 21.6185 7.59927C21.7329 6.27878 21.0942 5.14817 20.1902 5.07049C19.2883 4.99282 18.4662 5.99829 18.3518 7.31877C18.2375 8.63926 18.8783 9.77203 19.7802 9.84755ZM23.2735 9.90365C23.8431 10.0353 24.4623 9.46348 24.6565 8.63063C24.8464 7.79561 24.5422 7.01238 23.9725 6.88077C23.4029 6.74915 22.7837 7.32093 22.5916 8.15379C22.3975 8.9888 22.706 9.77203 23.2735 9.90365ZM25.69 10.7861C26.0978 10.9199 26.5876 10.5445 26.7861 9.9468C26.9846 9.34913 26.812 8.75361 26.4042 8.61984C25.9964 8.48606 25.5045 8.8615 25.306 9.45917C25.1075 10.0568 25.2801 10.6524 25.69 10.7861ZM28.5123 10.4021C28.1562 10.2251 27.66 10.4992 27.4032 11.017C27.1465 11.5348 27.2241 12.0958 27.5801 12.2728C27.934 12.4497 28.4324 12.1757 28.6892 11.6578C28.9459 11.14 28.8661 10.5768 28.5123 10.4021ZM29.7464 12.6115C29.5112 12.495 29.1811 12.6784 29.0085 13.0215C28.8402 13.3645 28.8898 13.74 29.1272 13.8565C29.3624 13.9751 29.6925 13.7917 29.8651 13.4465C30.0356 13.1035 29.9838 12.7302 29.7464 12.6115Z" fill="white"/>
</svg>
