<svg width="57" height="20" viewBox="0 0 57 20" fill="none" xmlns="http://www.w3.org/2000/svg">
<path d="M7.22802 10.888C11.05 10.888 11.492 10.966 11.492 5.94798C11.492 0.695983 10.764 0.929984 7.22802 0.929984V10.888ZM7.22802 15.438C7.22802 18.792 7.87803 18.766 9.36003 18.766V19H0.806024V18.766C1.89802 18.766 2.00202 18.298 2.00202 16.53V3.13998C2.00202 1.52798 1.79402 0.903984 0.650024 0.903984V0.695984H7.22802C12.402 0.695984 17.524 1.03398 17.524 5.94798C17.524 10.81 12.402 11.122 7.22802 11.122V15.438Z" fill="white"/>
<path d="M33.747 12.656L27.455 0.695984H20.045V0.929984C20.773 0.981985 21.605 1.39798 22.619 3.19198V12.11C22.619 15.516 21.501 18.766 18.719 18.766V19H26.831V18.766C23.815 18.766 22.853 15.464 22.853 12.11V3.58198L31.277 19.234H31.511L38.245 1.39798V16.582C38.245 18.35 38.141 18.766 36.919 18.766V19H44.849V18.766C43.575 18.766 43.367 18.35 43.367 16.582V2.85398C43.367 1.26798 43.315 0.929984 44.589 0.929984V0.695984H38.245L33.747 12.656Z" fill="white"/>
<path d="M56.0627 0.903984V0.695984H49.3547V0.903984C50.0827 0.903984 49.9787 2.87998 49.9787 3.13998V10.134H43.6867V3.13998C43.6867 2.87998 43.5307 0.903984 44.3107 0.903984V0.695984H37.5767V0.903984C38.8247 0.903984 38.7467 2.87998 38.7467 3.13998V16.504C38.7467 16.92 38.8507 18.766 37.5767 18.766V19H44.3107V18.766C43.6087 18.766 43.6867 16.92 43.6867 16.504V10.368H49.9787V16.504C49.9787 16.92 50.0307 18.766 49.3547 18.766V19H56.0627V18.766C54.8407 18.766 54.9187 16.92 54.9187 16.504V3.13998C54.9187 2.87998 54.8927 0.903984 56.0627 0.903984Z" fill="white"/>
</svg>
