<svg xmlns="http://www.w3.org/2000/svg" width="12.933" height="8.223" viewBox="0 0 12.933 8.223">
  <g id="noun_Battery_3408796" transform="translate(12.933) rotate(90)">
    <g id="Group_68" data-name="Group 68">
      <path id="Path_67" data-name="Path 67" d="M26.566,14.5H21.257A1.458,1.458,0,0,0,19.8,15.957v8.386A1.458,1.458,0,0,0,21.257,25.8h5.309a1.458,1.458,0,0,0,1.457-1.457V15.957A1.458,1.458,0,0,0,26.566,14.5Zm.476,9.843a.488.488,0,0,1-.49.49H21.243a.488.488,0,0,1-.49-.49V15.957a.488.488,0,0,1,.49-.49h5.309a.488.488,0,0,1,.49.49Z" transform="translate(-19.8 -12.866)"/>
      <path id="Path_68" data-name="Path 68" d="M38.157,44.9H34.89a.49.49,0,0,0,0,.98h3.267a.488.488,0,0,0,.49-.49A.5.5,0,0,0,38.157,44.9Z" transform="translate(-32.412 -39.128)"/>
      <path id="Path_69" data-name="Path 69" d="M38.157,60H34.89a.49.49,0,1,0,0,.98h3.267a.488.488,0,0,0,.49-.49A.5.5,0,0,0,38.157,60Z" transform="translate(-32.412 -52.172)"/>
      <path id="Path_70" data-name="Path 70" d="M38.157,75.2H34.89a.49.49,0,0,0,0,.98h3.267a.488.488,0,0,0,.49-.49A.5.5,0,0,0,38.157,75.2Z" transform="translate(-32.412 -65.303)"/>
      <path id="Path_71" data-name="Path 71" d="M39.591,3.467h2.491a.186.186,0,0,0,.191-.191V2.691a.186.186,0,0,0-.191-.191H39.591a.186.186,0,0,0-.191.191v.585A.186.186,0,0,0,39.591,3.467Z" transform="translate(-36.732 -2.5)"/>
    </g>
  </g>
</svg>
