<svg width="57" height="19" viewBox="0 0 57 19" fill="none" xmlns="http://www.w3.org/2000/svg">
<path d="M7.22802 10.192C11.05 10.192 11.492 10.27 11.492 5.252C11.492 -4.76837e-07 10.764 0.234 7.22802 0.234V10.192ZM7.22802 14.742C7.22802 18.096 7.87803 18.07 9.36003 18.07V18.304H0.806024V18.07C1.89802 18.07 2.00202 17.602 2.00202 15.834V2.444C2.00202 0.832 1.79402 0.208 0.650024 0.208V0H7.22802C12.402 0 17.524 0.338 17.524 5.252C17.524 10.114 12.402 10.426 7.22802 10.426V14.742Z" fill="#4684E2"/>
<path d="M33.747 11.96L27.455 0H20.045V0.234C20.773 0.286001 21.605 0.702 22.619 2.496V11.414C22.619 14.82 21.501 18.07 18.719 18.07V18.304H26.831V18.07C23.815 18.07 22.853 14.768 22.853 11.414V2.886L31.277 18.538H31.511L38.245 0.702V15.886C38.245 17.654 38.141 18.07 36.919 18.07V18.304H44.849V18.07C43.575 18.07 43.367 17.654 43.367 15.886V2.158C43.367 0.572 43.315 0.234 44.589 0.234V0H38.245L33.747 11.96Z" fill="#4684E2"/>
<path d="M56.0627 0.208V0H49.3547V0.208C50.0827 0.208 49.9787 2.184 49.9787 2.444V9.438H43.6867V2.444C43.6867 2.184 43.5307 0.208 44.3107 0.208V0H37.5767V0.208C38.8247 0.208 38.7467 2.184 38.7467 2.444V15.808C38.7467 16.224 38.8507 18.07 37.5767 18.07V18.304H44.3107V18.07C43.6087 18.07 43.6867 16.224 43.6867 15.808V9.672H49.9787V15.808C49.9787 16.224 50.0307 18.07 49.3547 18.07V18.304H56.0627V18.07C54.8407 18.07 54.9187 16.224 54.9187 15.808V2.444C54.9187 2.184 54.8927 0.208 56.0627 0.208Z" fill="#4684E2"/>
</svg>
