<svg width="9" height="14" viewBox="0 0 9 14" fill="none" xmlns="http://www.w3.org/2000/svg">
<path d="M4.59465 0.333313C5.27881 0.333312 5.9368 0.59627 6.43252 1.0678C6.92824 1.53932 7.22377 2.18334 7.25798 2.86665L7.26131 2.99998L7.26198 7.48531L7.29865 7.52398C7.83265 8.10577 8.16385 8.84488 8.24265 9.63064L8.25665 9.81464L8.26131 9.99998C8.26125 10.5885 8.11953 11.1684 7.84812 11.6906C7.5767 12.2128 7.18358 12.662 6.70195 13.0002C6.22033 13.3385 5.66437 13.5558 5.08104 13.6339C4.49772 13.7119 3.90417 13.6485 3.35055 13.4488C2.79694 13.2491 2.29952 12.9191 1.90034 12.4866C1.50116 12.0542 1.21194 11.532 1.05712 10.9642C0.902303 10.3964 0.886435 9.79964 1.01086 9.22442C1.13528 8.64919 1.39634 8.11237 1.77198 7.65931L1.89131 7.52265L1.92731 7.48465L1.92798 2.99998C1.92792 2.33921 2.17319 1.70195 2.61624 1.21172C3.05929 0.721496 3.66857 0.413219 4.32598 0.346646L4.46131 0.336646L4.59465 0.333313ZM4.59465 1.66665C4.25826 1.66654 3.93427 1.79358 3.68761 2.02231C3.44096 2.25104 3.28987 2.56454 3.26465 2.89998L3.26131 2.99998V8.06198L3.03931 8.26064C2.69155 8.57166 2.44501 8.97978 2.33152 9.43231C2.21803 9.88485 2.24281 10.361 2.40266 10.7993C2.5625 11.2376 2.85007 11.618 3.22824 11.8912C3.6064 12.1644 4.05779 12.318 4.52412 12.3322C4.99046 12.3463 5.45032 12.2203 5.84433 11.9704C6.23834 11.7206 6.5484 11.3584 6.73448 10.9305C6.92056 10.5027 6.97411 10.0289 6.88822 9.57034C6.80233 9.11176 6.58095 8.68947 6.25265 8.35798L6.15065 8.26131L5.92865 8.06264L5.92798 2.99998C5.92798 2.64636 5.7875 2.30722 5.53745 2.05717C5.28741 1.80712 4.94827 1.66665 4.59465 1.66665ZM4.59465 4.33331C4.77146 4.33331 4.94103 4.40355 5.06605 4.52857C5.19107 4.6536 5.26131 4.82317 5.26131 4.99998V8.47198C5.61225 8.62514 5.89974 8.89446 6.07546 9.23466C6.25117 9.57487 6.30439 9.9652 6.22616 10.34C6.14793 10.7148 5.94302 11.0513 5.64589 11.2928C5.34877 11.5343 4.97755 11.6662 4.59465 11.6662C4.21174 11.6662 3.84052 11.5343 3.5434 11.2928C3.24627 11.0513 3.04137 10.7148 2.96314 10.34C2.8849 9.9652 2.93812 9.57487 3.11384 9.23466C3.28955 8.89446 3.57704 8.62514 3.92798 8.47198V4.99998C3.92798 4.82317 3.99822 4.6536 4.12324 4.52857C4.24827 4.40355 4.41783 4.33331 4.59465 4.33331Z" fill="#595960"/>
</svg>
