<?xml version="1.0" encoding="utf-8"?>
<!-- Generator: Adobe Illustrator 24.2.3, SVG Export Plug-In . SVG Version: 6.00 Build 0)  -->
<svg version="1.1" id="Layer_1" xmlns="http://www.w3.org/2000/svg" xmlns:xlink="http://www.w3.org/1999/xlink" x="0px" y="0px"
	 viewBox="0 0 353.5 444.2" style="enable-background:new 0 0 353.5 444.2;" xml:space="preserve">
<style type="text/css">
	.st0{fill:#2D363F;}
	.st1{fill:url(#SVGID_1_);}
</style>
<g>
	<path class="st0" d="M349.4,138.6C331.7,57.9,259.6,0,175.2,0c-10.5-0.3-22.2,1.1-33.8,3.4C50.6,21.5-11.7,108,1.8,200.2
		C12.7,274,55.6,322.3,126.3,345.9c3.4,1.2,5.4,2.6,6.7,6.2c10.3,27.6,20.9,55.2,31.5,82.8c2.5,6.5,6.2,9.2,12.2,9.2
		s9.8-2.9,12.3-9.7c10.1-27.6,20.3-55.2,30.3-82.8c1-2.8,2.5-4.1,5.4-4.9C315.2,320.6,369.4,230,349.4,138.6z M327.6,187.2
		c0-0.7,0-1.5,0-2.2c-0.1,0.7-0.2,1.4-0.3,2c0.2,1.5,0.2,2.8,0.1,4.1c-1.3,16.5-5.4,32.1-12.5,47.1c-0.1,0.1-0.2,0.2-0.3,0.2
		c0.1,0,0.3-0.1,0.4-0.1c-6.2,15.3-15.4,28.7-26.5,40.7c-21.3,23.2-47.3,38.4-78,45.5c-6.1,1.4-10,4.6-11.9,10.6
		c-1.5,4.7-3.5,9.3-5.2,14c-0.1,0-0.1,0.1-0.2,0.1c-5.5,15.1-10.9,30.3-16.8,46.7c-4.3-11.5-8.1-21.5-11.9-31.7c0,0,0,0,0,0
		c-4.2-11.1-8.5-22.1-12.7-33.1c-2.8-4-6.8-5.9-11.4-7.1c-9.3-2.3-18.5-5-27-9.8c0,0,0-0.1,0.1-0.1c0,0,0,0-0.1,0
		c-13.3-5.6-25.2-13.2-35.8-23c0,0-0.1,0-0.1,0c-12.4-10.1-22.5-22.2-30.6-36c0,0,0,0,0.1,0c-6.7-10.6-11.8-21.9-15.2-33.9
		c0,0,0.1,0,0.1-0.1c0,0-0.1,0-0.1,0c-3.5-10.6-5.9-21.6-6.1-32.8c0,0,0,0,0,0c-0.2-0.3-0.2-0.6-0.1-0.9c0-0.2,0-0.3-0.1-0.5
		c-1.2-6.9-1.2-13.9,0.1-20.8c0,0.1,0,0.1,0,0.2c0,0,0,0,0,0c0.1-3-0.5-5.9,0.9-8.5c0.9-13.5,4.5-26.3,10.1-38.6c0,0,0.1,0,0.1-0.1
		c6.8-18.2,17.5-33.9,31-47.6c32.7-33.2,72.5-48.4,119-46.1c3.3,0.1,6.6,0.7,9.9,1.1c0,0,0,0,0,0c14.3,1.8,27.8,6.1,40.9,11.9
		c0,0.1,0,0.2,0.1,0.2c0-0.1,0-0.2,0-0.2c8.7,3,16.4,7.7,23.9,13c0,0,0-0.1,0-0.1c11.9,7.6,22.2,17,30.9,28.1c0,0.1,0,0.1,0,0.2
		c0.1-0.1,0.1-0.1,0.2-0.2c7.4,8,13.2,17,17.9,26.8c5.6,9.6,9.8,19.9,12.1,30.8c3.2,9.4,4.7,19.2,4.9,29.1c0,0,0.1,0.1,0.1,0.1
		c0,0,0-0.1,0-0.1c0,0.1,0,0.1,0,0.2c0.2,0.4,0.3,0.8,0.2,1.1C328.9,174,328.8,180.6,327.6,187.2z"/>
</g>
<linearGradient id="SVGID_1_" gradientUnits="userSpaceOnUse" x1="102.1065" y1="70.0754" x2="260.6825" y2="296.4857">
	<stop  offset="0" style="stop-color:#A7E7C1"/>
	<stop  offset="0.2221" style="stop-color:#90E3BE"/>
	<stop  offset="0.6851" style="stop-color:#55D9B6"/>
	<stop  offset="1" style="stop-color:#2AD2B0"/>
</linearGradient>
<path class="st1" d="M327.8,187.2c1.2-6.6,1.3-13.2,0.2-19.7c0.1-0.4,0-0.8-0.2-1.1c0-0.1,0-0.1,0-0.2c0,0,0,0.1,0,0.1
	c0,0-0.1-0.1-0.1-0.1c-0.2-9.9-1.7-19.7-4.9-29.1c-2.3-10.9-6.5-21.2-12.1-30.8c-4.7-9.8-10.5-18.8-17.9-26.8
	c-0.1,0.1-0.1,0.1-0.2,0.2c0-0.1,0-0.1,0-0.2c-8.7-11.1-19-20.5-30.9-28.1c0,0,0,0.1,0,0.1c-7.5-5.4-15.2-10-23.9-13
	c0,0.1,0,0.2,0,0.2c0-0.1,0-0.2-0.1-0.2c-13.1-5.8-26.6-10.1-40.9-11.9c0,0,0,0,0,0c-3.3-0.4-6.6-1-9.9-1.1
	c-46.5-2.3-86.3,12.9-119,46.1c-13.5,13.7-24.2,29.5-31,47.6c0,0-0.1,0-0.1,0.1c-5.6,12.3-9.2,25.1-10.1,38.6
	c-1.4,2.6-0.8,5.5-0.9,8.5c0,0,0,0,0,0c0-0.1,0-0.1,0-0.2c-1.3,6.9-1.3,13.9-0.1,20.8c0,0.2,0,0.3,0.1,0.5c-0.1,0.3-0.1,0.6,0.1,0.9
	c0,0,0,0,0,0c0.2,11.2,2.6,22.2,6.1,32.8c0,0,0.1,0,0.1,0c0,0-0.1,0-0.1,0.1c3.4,12,8.5,23.3,15.2,33.9c0,0,0,0-0.1,0
	c8.1,13.8,18.2,25.9,30.6,36c0,0,0.1,0,0.1,0c10.6,9.7,22.5,17.4,35.8,23c0,0,0,0,0.1,0c0,0,0,0.1-0.1,0.1c8.5,4.8,17.7,7.5,27,9.8
	c4.6,1.2,8.6,3.1,11.4,7.1c4.2,11,8.5,22,12.7,33.1c0,0,0,0,0,0c3.8,10.2,7.6,20.2,11.9,31.7c5.9-16.4,11.3-31.6,16.8-46.7
	c0.1,0,0.1-0.1,0.2-0.1c1.7-4.7,3.7-9.3,5.2-14c1.9-6,5.8-9.2,11.9-10.6c30.7-7.1,56.7-22.3,78-45.5c11.1-12,20.3-25.4,26.5-40.7
	c-0.1,0-0.3,0.1-0.4,0.1c0.1-0.1,0.2-0.2,0.3-0.2c7.1-15,11.2-30.6,12.5-47.1h0c0.1-1.3,0.1-2.6-0.1-4.1c0.1-0.7,0.2-1.4,0.3-2
	C327.7,185.7,327.7,186.5,327.8,187.2z M104.3,145.5c1.4-1.6,2.1-3.4,3-5.2c6.7-12.6,16-22.7,28.3-30.1
	c14.8-8.9,30.9-12.4,48.1-11.6c0.2,0,0.4,0,0.6,0c0.8,1,2.5,0.6,3.7,0.7c9.1,1.5,17.7,4.2,25.9,8.5c5.5,2.9,9.9,7.3,15.5,9.9
	c0.1,0,0.2,0,0.2,0c0,0.3,0,0.6,0.2,0.8c6.9,7.1,12.5,15.1,17.9,23.4c0.1,0.3,0.6,0.2,0.9,0.2c0,0,0.1,0,0.1,0
	c-0.2,0.2-0.3,0.3-0.5,0.5c1.9,8.8,5.5,17.2,6.6,26.2c0.1,0.5,0.2,0.9,0.3,1.3c-1.1,1.7-0.8,3.7-0.8,5.5c0.4,10.5-1.5,20.5-5.2,30.3
	c-0.5,1.5-1.5,3-0.7,4.6c-0.2,0-0.4,0.1-0.6,0.2c-1.2,0.7-1.9,1.8-2.5,3c-4.2,7.7-9.5,14.4-16,20.3c-17.5,16-38.1,22.3-61.6,20.1
	c-7.2-0.7-13.8-3.7-20.9-4.4c-0.1,0.1-0.1,0.1-0.2,0.2c-0.2-0.3-0.4-0.5-0.8-0.6c-13.4-6.2-24-15.9-33.1-27.4
	c-0.7-0.9-1.5-1.9-2.7-2.2c0.2-1.2-0.5-2.3-1.1-3.2c-3.1-5.4-4.9-11.2-6.8-17c-1.4-4.4-1.4-9.2-3.8-13.3c-0.2-0.1-0.3-0.2-0.4-0.2
	c1.3-1.2,1.2-2.8,1-4.5c-1.1-10.1,0.9-19.7,3.8-29.3c0.6-2.1,1.9-4.1,1.2-6.4C104,145.7,104.1,145.6,104.3,145.5z M327.1,168.3
	c0.1-0.1,0.2-0.1,0.3-0.2c0,0,0.1-0.1,0.1-0.1c0,0,0,0.1,0,0.1c0,0.2,0,0.5,0,0.7C327.4,168.6,327.3,168.4,327.1,168.3z"/>
<path class="st0" d="M255.9,176.9c0,43.9-35.6,79.5-79.5,79.5s-79.5-35.6-79.5-79.5s35.6-79.5,79.5-79.5S255.9,132.9,255.9,176.9z
	 M176.8,119.5c-31.5,0-57,25.5-57,57s25.5,57,57,57s57-25.5,57-57S208.2,119.5,176.8,119.5z"/>
</svg>
